# xmcd CD database file
# Copyright (C) 1997 Ti Kan
# 
# Track frame offsets:
#     150
#     26130
#     43150
#     63362
#     84335
#     116902
#     144242
#     164977
#     184677
#     201807
#     222780
#     243522
#     261780
#     289655
#     310707
# 
# Disc length: 4398 seconds
# 
# Revision: 1
# Processed by: cddbd v1.4b41PL1 Copyright (c) Steve Scherf et al.
# Submitted via: DiscPlay 4.0.4
# 
DISCID=df112c0f
DTITLE=Air Supply - Now And Forever-Greatest Hits Live
DYEAR=1900
DGENRE=
TTITLE0=Making Love Out Of Nothing At All
TTITLE1=Chances
TTITLE2=Lost In Love
TTITLE3=Here I Am
TTITLE4=Sweet Dreams
TTITLE5=Someone
TTITLE6=I Want To Give It All
TTITLE7=Always
TTITLE8=Unchained Melody
TTITLE9=Without You
TTITLE10=The One That You Love
TTITLE11=Goodbye
TTITLE12=All Out Of Love
TTITLE13=The Way I Feel
TTITLE14=Now And Forever
EXTD=
EXTT0=
EXTT1=
EXTT2=
EXTT3=
EXTT4=
EXTT5=
EXTT6=
EXTT7=
EXTT8=
EXTT9=
EXTT10=
EXTT11=
EXTT12=
EXTT13=
EXTT14=
PLAYORDER=
